<svg width="42" height="42" viewBox="0 0 42 42" fill="none" xmlns="http://www.w3.org/2000/svg">
<circle cx="21" cy="21" r="21" fill="white"/>
<path d="M30.7812 16.6875L23.1406 13.1953C22.7292 13.0078 22.3516 12.8724 22.0078 12.7891C21.6641 12.7005 21.3255 12.6589 20.9922 12.6641C20.6693 12.6589 20.3333 12.7005 19.9844 12.7891C19.6354 12.8724 19.2578 13.0078 18.8516 13.1953L11.2188 16.6875C10.9479 16.8073 10.7422 16.9714 10.6016 17.1797C10.4661 17.388 10.3984 17.6068 10.3984 17.8359C10.3984 18.0703 10.4661 18.2891 10.6016 18.4922C10.7422 18.6953 10.9479 18.8594 11.2188 18.9844L14.2578 20.3516L19.3203 17.9922C19.2839 17.9453 19.2656 17.8932 19.2656 17.8359C19.2656 17.6484 19.349 17.4818 19.5156 17.3359C19.6875 17.1901 19.9062 17.0755 20.1719 16.9922C20.4427 16.9089 20.7266 16.8672 21.0234 16.8672C21.3203 16.8672 21.6016 16.9089 21.8672 16.9922C22.1328 17.0755 22.349 17.1901 22.5156 17.3359C22.6823 17.4818 22.7656 17.6484 22.7656 17.8359C22.7656 18.0286 22.6823 18.2005 22.5156 18.3516C22.349 18.4974 22.1328 18.6146 21.8672 18.7031C21.6016 18.7865 21.3203 18.8281 21.0234 18.8281C20.737 18.8281 20.4714 18.7891 20.2266 18.7109L15.4609 20.9297L18.8516 22.4844C19.263 22.6719 19.6406 22.8099 19.9844 22.8984C20.3333 22.9818 20.6693 23.0208 20.9922 23.0156C21.3255 23.0208 21.6641 22.9792 22.0078 22.8906C22.3516 22.8021 22.7292 22.6667 23.1406 22.4844L30.7812 18.9844C31.0469 18.8594 31.25 18.6953 31.3906 18.4922C31.5312 18.2891 31.6016 18.0703 31.6016 17.8359C31.6016 17.6068 31.5312 17.388 31.3906 17.1797C31.25 16.9714 31.0469 16.8073 30.7812 16.6875ZM15.4375 22.1719V26.7578C16.1146 27.1693 16.9245 27.4896 17.8672 27.7188C18.8151 27.9531 19.8568 28.0703 20.9922 28.0703C22.1432 28.0703 23.1901 27.9557 24.1328 27.7266C25.0807 27.4974 25.8958 27.1797 26.5781 26.7734C27.2604 26.3672 27.7865 25.8984 28.1562 25.3672C28.5312 24.8307 28.7188 24.2604 28.7188 23.6562V21.1797L23.6172 23.5156C22.6693 23.9479 21.7943 24.1615 20.9922 24.1562C20.2005 24.1615 19.3281 23.9479 18.375 23.5156L15.4375 22.1719ZM13.2734 21.1797V23.6562C13.2734 23.9948 13.3594 24.3568 13.5312 24.7422C13.7083 25.1276 13.9609 25.4922 14.2891 25.8359V21.6484L13.2734 21.1797ZM14.2891 28.4453L15.4375 28.4531V26.7578C15.2135 26.6224 15.0026 26.4766 14.8047 26.3203C14.612 26.1693 14.4401 26.0078 14.2891 25.8359V28.4453ZM13.6016 28.6172V30.6406C13.6016 30.974 13.7005 31.2396 13.8984 31.4375C14.1016 31.6406 14.3698 31.7422 14.7031 31.7422H15.0156C15.349 31.7422 15.6146 31.6406 15.8125 31.4375C16.0156 31.2396 16.1172 30.974 16.1172 30.6406V28.6172C16.1172 28.2839 16.0156 28.0156 15.8125 27.8125C15.6146 27.6146 15.349 27.5156 15.0156 27.5156H14.7031C14.3698 27.5156 14.1016 27.6146 13.8984 27.8125C13.7005 28.0156 13.6016 28.2839 13.6016 28.6172Z" fill="#4E4E4E"/>
</svg>
