<svg width="42" height="42" viewBox="0 0 42 42" fill="none" xmlns="http://www.w3.org/2000/svg">
<circle cx="21" cy="21" r="21" fill="#FF8787"/>
<path d="M15.125 18.8438C15.125 18.6302 15.1875 18.4609 15.3125 18.3359C15.4375 18.2109 15.612 18.1484 15.8359 18.1484H17.1484V16.875C17.1484 16.6562 17.2109 16.4844 17.3359 16.3594C17.4609 16.2292 17.6276 16.1641 17.8359 16.1641C18.0495 16.1641 18.2161 16.2292 18.3359 16.3594C18.4609 16.4844 18.5234 16.6562 18.5234 16.875V18.1484H19.7656C20 18.1484 20.1849 18.2109 20.3203 18.3359C20.4557 18.4609 20.5234 18.6302 20.5234 18.8438C20.5234 19.0573 20.4557 19.2292 20.3203 19.3594C20.1849 19.4844 20 19.5469 19.7656 19.5469H18.5234V20.8203C18.5234 21.0391 18.4609 21.2135 18.3359 21.3438C18.2161 21.474 18.0495 21.5391 17.8359 21.5391C17.6276 21.5391 17.4609 21.474 17.3359 21.3438C17.2109 21.2135 17.1484 21.0391 17.1484 20.8203V19.5469H15.8359C15.612 19.5469 15.4375 19.4844 15.3125 19.3594C15.1875 19.2292 15.125 19.0573 15.125 18.8438ZM22.8359 19.9609C22.8359 19.6328 22.9479 19.3568 23.1719 19.1328C23.3958 18.9089 23.6693 18.7969 23.9922 18.7969C24.3203 18.7969 24.5938 18.9089 24.8125 19.1328C25.0365 19.3568 25.1484 19.6328 25.1484 19.9609C25.1484 20.2839 25.0365 20.5573 24.8125 20.7812C24.5938 21.0052 24.3203 21.1172 23.9922 21.1172C23.6693 21.1172 23.3958 21.0052 23.1719 20.7812C22.9479 20.5573 22.8359 20.2839 22.8359 19.9609ZM25.1641 17.6172C25.1641 17.2891 25.2734 17.013 25.4922 16.7891C25.7161 16.5651 25.9896 16.4531 26.3125 16.4531C26.6406 16.4531 26.9141 16.5651 27.1328 16.7891C27.3568 17.013 27.4688 17.2891 27.4688 17.6172C27.4688 17.9453 27.3568 18.2188 27.1328 18.4375C26.9141 18.6562 26.6406 18.7656 26.3125 18.7656C25.9896 18.7656 25.7161 18.6562 25.4922 18.4375C25.2734 18.2188 25.1641 17.9453 25.1641 17.6172ZM13.1172 27.5703C13.6953 27.5703 14.1927 27.4635 14.6094 27.25C15.026 27.0417 15.4089 26.7318 15.7578 26.3203L17.1484 24.7031C17.2526 24.5833 17.3568 24.4974 17.4609 24.4453C17.5651 24.3932 17.6771 24.3672 17.7969 24.3672H25.2031C25.3229 24.3672 25.4349 24.3932 25.5391 24.4453C25.6432 24.4974 25.7474 24.5833 25.8516 24.7031L27.2422 26.3203C27.5911 26.7266 27.974 27.0365 28.3906 27.25C28.8073 27.4635 29.3047 27.5703 29.8828 27.5703C30.4818 27.5703 31.0104 27.4453 31.4688 27.1953C31.9323 26.9453 32.2917 26.5885 32.5469 26.125C32.8073 25.6615 32.9375 25.112 32.9375 24.4766C32.9375 24.0703 32.8932 23.6354 32.8047 23.1719C32.7214 22.7083 32.6016 22.2188 32.4453 21.7031C32.2891 21.1667 32.0964 20.5833 31.8672 19.9531C31.638 19.3177 31.3906 18.6797 31.125 18.0391C30.8646 17.3932 30.6016 16.7891 30.3359 16.2266C30.1068 15.7526 29.8906 15.3542 29.6875 15.0312C29.4844 14.7083 29.224 14.4427 28.9062 14.2344C28.5885 14.026 28.1432 13.8568 27.5703 13.7266C26.8203 13.5547 25.9349 13.4193 24.9141 13.3203C23.8932 13.2161 22.7552 13.1641 21.5 13.1641C20.2448 13.1641 19.1068 13.2161 18.0859 13.3203C17.0651 13.4193 16.1771 13.5547 15.4219 13.7266C14.8542 13.8568 14.4115 14.026 14.0938 14.2344C13.776 14.4427 13.513 14.7083 13.3047 15.0312C13.1016 15.3542 12.888 15.7526 12.6641 16.2266C12.3984 16.7891 12.1328 17.3932 11.8672 18.0391C11.6068 18.6797 11.362 19.3177 11.1328 19.9531C10.9036 20.5833 10.7109 21.1667 10.5547 21.7031C10.3984 22.2188 10.276 22.7083 10.1875 23.1719C10.1042 23.6354 10.0625 24.0703 10.0625 24.4766C10.0625 25.112 10.1901 25.6615 10.4453 26.125C10.7057 26.5885 11.0651 26.9453 11.5234 27.1953C11.9818 27.4453 12.513 27.5703 13.1172 27.5703Z" fill="#4E3636"/>
</svg>
