<svg width="42" height="42" viewBox="0 0 42 42" fill="none" xmlns="http://www.w3.org/2000/svg">
<circle cx="21" cy="21" r="21" fill="#5CF7AD"/>
<path d="M18.2578 29.0078C18.6016 29.0078 18.8724 28.9141 19.0703 28.7266C19.2682 28.5391 19.3672 28.2812 19.3672 27.9531L19.2031 19.1016C19.2031 18.9453 19.2318 18.8177 19.2891 18.7188C19.3516 18.6146 19.4453 18.5339 19.5703 18.4766C19.9245 18.3203 20.2135 18.1484 20.4375 17.9609C20.6667 17.7682 20.8281 17.5234 20.9219 17.2266C21.0208 16.9245 21.0625 16.5312 21.0469 16.0469L20.8203 11.2656C20.8047 10.875 20.6146 10.6797 20.25 10.6797C20.0833 10.6797 19.9531 10.7344 19.8594 10.8438C19.7656 10.9479 19.7188 11.0938 19.7188 11.2812L19.7812 15.9297C19.7812 16.0703 19.7396 16.1823 19.6562 16.2656C19.5781 16.3438 19.4766 16.3828 19.3516 16.3828C19.2161 16.3828 19.1068 16.3438 19.0234 16.2656C18.9401 16.1875 18.8984 16.0807 18.8984 15.9453L18.8203 11.1328C18.8151 10.9557 18.763 10.8177 18.6641 10.7188C18.5651 10.6146 18.4297 10.5625 18.2578 10.5625C18.0911 10.5625 17.9583 10.6146 17.8594 10.7188C17.7604 10.8177 17.7109 10.9557 17.7109 11.1328L17.625 15.9453C17.625 16.0807 17.5833 16.1875 17.5 16.2656C17.4167 16.3438 17.3073 16.3828 17.1719 16.3828C16.8802 16.3828 16.737 16.2318 16.7422 15.9297L16.7969 11.2812C16.7969 11.0938 16.75 10.9479 16.6562 10.8438C16.5677 10.7344 16.4401 10.6797 16.2734 10.6797C16.1016 10.6797 15.9635 10.7318 15.8594 10.8359C15.7604 10.9401 15.7057 11.0833 15.6953 11.2656L15.4766 16.0469C15.4557 16.5312 15.4922 16.9245 15.5859 17.2266C15.6849 17.5234 15.8464 17.7682 16.0703 17.9609C16.2995 18.1484 16.5911 18.3203 16.9453 18.4766C17.0755 18.5339 17.1693 18.6146 17.2266 18.7188C17.2839 18.8177 17.3125 18.9453 17.3125 19.1016L17.1562 27.9531C17.151 28.2812 17.2474 28.5391 17.4453 28.7266C17.6432 28.9141 17.9141 29.0078 18.2578 29.0078ZM24.4766 22.0938L24.3203 27.9219C24.3099 28.2708 24.4036 28.5391 24.6016 28.7266C24.8047 28.9141 25.0781 29.0078 25.4219 29.0078C25.7656 29.0078 26.0365 28.9193 26.2344 28.7422C26.4375 28.5651 26.5391 28.3151 26.5391 27.9922V11.1719C26.5391 10.9688 26.4792 10.8177 26.3594 10.7188C26.2448 10.6146 26.1094 10.5625 25.9531 10.5625C25.8021 10.5625 25.6693 10.6042 25.5547 10.6875C25.4453 10.7708 25.3229 10.9062 25.1875 11.0938C24.8698 11.5417 24.5807 12.0807 24.3203 12.7109C24.0599 13.3359 23.8333 14.0208 23.6406 14.7656C23.4479 15.5104 23.2995 16.2812 23.1953 17.0781C23.0911 17.875 23.0391 18.6615 23.0391 19.4375V19.8594C23.0391 20.1406 23.0885 20.3828 23.1875 20.5859C23.2917 20.7839 23.4505 20.9557 23.6641 21.1016L24.0859 21.3828C24.2266 21.4818 24.3281 21.5885 24.3906 21.7031C24.4531 21.8125 24.4818 21.9427 24.4766 22.0938Z" fill="#2E4D3E"/>
</svg>
