<svg width="42" height="42" viewBox="0 0 42 42" fill="none" xmlns="http://www.w3.org/2000/svg">
<circle cx="21" cy="21" r="21" fill="#A199FF"/>
<path d="M14.4453 26.1953C14.4453 26.862 14.6328 27.3698 15.0078 27.7188C15.3828 28.0677 15.9036 28.2422 16.5703 28.2422H20.25V21.3828H14.4453V26.1953ZM21.7266 28.2422H25.4219C26.0885 28.2422 26.6068 28.0677 26.9766 27.7188C27.3516 27.3698 27.5391 26.862 27.5391 26.1953V21.3828H21.7266V28.2422ZM13.3672 19.1719C13.3672 19.6094 13.487 19.9297 13.7266 20.1328C13.9661 20.3307 14.3021 20.4297 14.7344 20.4297H20.25V16.0391H19.0781C18.4792 16.0391 18.013 15.8828 17.6797 15.5703C17.3516 15.2578 17.1875 14.888 17.1875 14.4609C17.1875 14.0443 17.3203 13.7188 17.5859 13.4844C17.8516 13.2448 18.1953 13.125 18.6172 13.125C19.0703 13.125 19.4557 13.2917 19.7734 13.625C20.0911 13.9531 20.25 14.3932 20.25 14.9453V16.0391H21.7266V14.9453C21.7266 14.3932 21.888 13.9531 22.2109 13.625C22.5339 13.2917 22.9193 13.125 23.3672 13.125C23.7891 13.125 24.1328 13.2448 24.3984 13.4844C24.6641 13.7188 24.7969 14.0443 24.7969 14.4609C24.7969 14.888 24.6302 15.2578 24.2969 15.5703C23.9688 15.8828 23.5052 16.0391 22.9062 16.0391H21.7266V20.4297H27.2578C27.6901 20.4297 28.026 20.3307 28.2656 20.1328C28.5052 19.9297 28.625 19.6094 28.625 19.1719V17.4297C28.625 16.9505 28.4948 16.599 28.2344 16.375C27.974 16.151 27.6042 16.0391 27.125 16.0391H25.5703C25.7995 15.8203 25.9766 15.5651 26.1016 15.2734C26.2266 14.9818 26.2891 14.6641 26.2891 14.3203C26.2891 13.7995 26.1641 13.3385 25.9141 12.9375C25.6641 12.5365 25.3281 12.2214 24.9062 11.9922C24.4896 11.763 24.0208 11.6484 23.5 11.6484C22.9271 11.6484 22.4141 11.8047 21.9609 12.1172C21.5078 12.4297 21.1849 12.8698 20.9922 13.4375C20.7995 12.8698 20.4766 12.4297 20.0234 12.1172C19.5755 11.8047 19.0625 11.6484 18.4844 11.6484C17.9635 11.6484 17.4922 11.763 17.0703 11.9922C16.6536 12.2214 16.3203 12.5365 16.0703 12.9375C15.8203 13.3385 15.6953 13.7995 15.6953 14.3203C15.6953 14.6641 15.7578 14.9818 15.8828 15.2734C16.013 15.5651 16.1927 15.8203 16.4219 16.0391H14.8672C14.4036 16.0391 14.0365 16.151 13.7656 16.375C13.5 16.599 13.3672 16.9505 13.3672 17.4297V19.1719Z" fill="#3B3A4E"/>
</svg>
