<svg width="42" height="42" viewBox="0 0 42 42" fill="none" xmlns="http://www.w3.org/2000/svg">
<circle cx="21" cy="21" r="21" fill="#FEBC80"/>
<path d="M13.0938 19.6016C13.0938 20.1328 13.1797 20.612 13.3516 21.0391C13.5234 21.4609 13.7578 21.7969 14.0547 22.0469C14.3516 22.2969 14.6797 22.4219 15.0391 22.4219C15.4089 22.4219 15.7422 22.2969 16.0391 22.0469C16.3359 21.7969 16.5703 21.4609 16.7422 21.0391C16.9141 20.612 17 20.1328 17 19.6016C17 19.0755 16.9141 18.599 16.7422 18.1719C16.5703 17.7448 16.3359 17.4062 16.0391 17.1562C15.7422 16.9062 15.4089 16.7812 15.0391 16.7812C14.6797 16.7812 14.3516 16.9062 14.0547 17.1562C13.7578 17.4062 13.5234 17.7448 13.3516 18.1719C13.1797 18.599 13.0938 19.0755 13.0938 19.6016ZM16.9453 15.0078C16.9453 15.5339 17.0312 16.0104 17.2031 16.4375C17.3802 16.8646 17.6172 17.2031 17.9141 17.4531C18.2109 17.6979 18.5417 17.8203 18.9062 17.8203C19.276 17.8203 19.6068 17.6979 19.8984 17.4531C20.1953 17.2031 20.4297 16.8646 20.6016 16.4375C20.7786 16.0104 20.8672 15.5339 20.8672 15.0078C20.8672 14.4766 20.7786 14 20.6016 13.5781C20.4297 13.151 20.1953 12.8125 19.8984 12.5625C19.6068 12.3125 19.276 12.1875 18.9062 12.1875C18.5417 12.1875 18.2109 12.3125 17.9141 12.5625C17.6172 12.8125 17.3802 13.151 17.2031 13.5781C17.0312 14 16.9453 14.4766 16.9453 15.0078ZM22.1328 15.0078C22.1328 15.5339 22.2188 16.0104 22.3906 16.4375C22.5625 16.8646 22.7969 17.2031 23.0938 17.4531C23.3906 17.6979 23.724 17.8203 24.0938 17.8203C24.4583 17.8203 24.7865 17.6979 25.0781 17.4531C25.375 17.2031 25.6094 16.8646 25.7812 16.4375C25.9583 16.0104 26.0469 15.5339 26.0469 15.0078C26.0469 14.4766 25.9583 14 25.7812 13.5781C25.6094 13.151 25.375 12.8125 25.0781 12.5625C24.7865 12.3125 24.4583 12.1875 24.0938 12.1875C23.724 12.1875 23.3906 12.3125 23.0938 12.5625C22.7969 12.8125 22.5625 13.151 22.3906 13.5781C22.2188 14 22.1328 14.4766 22.1328 15.0078ZM25.9922 19.6016C25.9922 20.1328 26.0781 20.612 26.25 21.0391C26.4271 21.4609 26.6615 21.7969 26.9531 22.0469C27.25 22.2969 27.5833 22.4219 27.9531 22.4219C28.3177 22.4219 28.6484 22.2969 28.9453 22.0469C29.2422 21.7969 29.474 21.4609 29.6406 21.0391C29.8125 20.612 29.8984 20.1328 29.8984 19.6016C29.8984 19.0755 29.8125 18.599 29.6406 18.1719C29.474 17.7448 29.2422 17.4062 28.9453 17.1562C28.6484 16.9062 28.3177 16.7812 27.9531 16.7812C27.5833 16.7812 27.25 16.9062 26.9531 17.1562C26.6615 17.4062 26.4271 17.7448 26.25 18.1719C26.0781 18.599 25.9922 19.0755 25.9922 19.6016ZM15.5156 25.7266C15.5156 26.2734 15.6302 26.7552 15.8594 27.1719C16.0885 27.5938 16.4062 27.9245 16.8125 28.1641C17.2188 28.4036 17.6901 28.5234 18.2266 28.5234C18.6224 28.5234 18.9714 28.4792 19.2734 28.3906C19.5755 28.3021 19.862 28.2109 20.1328 28.1172C20.3516 28.0391 20.5703 27.9714 20.7891 27.9141C21.0078 27.8568 21.2448 27.8281 21.5 27.8281C21.75 27.8281 21.9818 27.8568 22.1953 27.9141C22.4141 27.9714 22.6354 28.0391 22.8594 28.1172C23.125 28.2109 23.4089 28.3021 23.7109 28.3906C24.0182 28.4792 24.3672 28.5234 24.7578 28.5234C25.2995 28.5234 25.7734 28.4036 26.1797 28.1641C26.5859 27.9245 26.9036 27.5938 27.1328 27.1719C27.362 26.7552 27.4766 26.2734 27.4766 25.7266C27.4766 25.2682 27.3958 24.8776 27.2344 24.5547C27.0781 24.2266 26.875 23.9427 26.625 23.7031C26.3802 23.4583 26.1302 23.2292 25.875 23.0156C25.6615 22.8385 25.4557 22.6641 25.2578 22.4922C25.0599 22.3203 24.8906 22.125 24.75 21.9062C24.6302 21.7292 24.5208 21.5495 24.4219 21.3672C24.3281 21.1849 24.237 20.9974 24.1484 20.8047C23.9609 20.4036 23.7656 20.0208 23.5625 19.6562C23.3646 19.2917 23.1068 18.9974 22.7891 18.7734C22.4766 18.5443 22.0469 18.4297 21.5 18.4297C20.9531 18.4297 20.5208 18.5443 20.2031 18.7734C19.8854 18.9974 19.6276 19.2917 19.4297 19.6562C19.2318 20.0208 19.0365 20.401 18.8438 20.7969C18.7552 20.9896 18.6615 21.1797 18.5625 21.3672C18.4688 21.5495 18.3672 21.724 18.2578 21.8906C18.1172 22.1094 17.9453 22.3073 17.7422 22.4844C17.5443 22.6615 17.3385 22.8385 17.125 23.0156C16.8646 23.2292 16.612 23.4583 16.3672 23.7031C16.1224 23.9427 15.9193 24.2266 15.7578 24.5547C15.5964 24.8776 15.5156 25.2682 15.5156 25.7266Z" fill="#4E4135"/>
</svg>
