<svg width="42" height="42" viewBox="0 0 42 42" fill="none" xmlns="http://www.w3.org/2000/svg">
<circle cx="21" cy="21" r="21" fill="#5C9AF7"/>
<path d="M14.4375 25.125C14.4375 25.9583 14.6536 26.5885 15.0859 27.0156C15.5182 27.4479 16.1562 27.6641 17 27.6641H26.1953C26.9401 27.6641 27.5208 27.4479 27.9375 27.0156C28.3542 26.5885 28.5625 25.9583 28.5625 25.125V17.0469C28.5625 16.2135 28.3438 15.5833 27.9062 15.1562C27.474 14.724 26.8385 14.5078 26 14.5078H24.8828C24.8724 13.9245 24.7135 13.3906 24.4062 12.9062C24.099 12.4219 23.6901 12.0365 23.1797 11.75C22.6745 11.4583 22.1146 11.3125 21.5 11.3125C20.8802 11.3125 20.3151 11.4583 19.8047 11.75C19.2995 12.0365 18.8932 12.4219 18.5859 12.9062C18.2839 13.3906 18.125 13.9245 18.1094 14.5078H17C16.1562 14.5078 15.5182 14.724 15.0859 15.1562C14.6536 15.5833 14.4375 16.2135 14.4375 17.0469V25.125ZM19.6016 14.5078C19.6068 14.1693 19.6927 13.862 19.8594 13.5859C20.0312 13.3099 20.2578 13.0911 20.5391 12.9297C20.8203 12.763 21.1406 12.6797 21.5 12.6797C21.8542 12.6797 22.1719 12.763 22.4531 12.9297C22.7396 13.0911 22.9661 13.3099 23.1328 13.5859C23.2995 13.862 23.3854 14.1693 23.3906 14.5078H19.6016Z" fill="#2E3A4D"/>
</svg>
