<svg width="42" height="42" viewBox="0 0 42 42" fill="none" xmlns="http://www.w3.org/2000/svg">
<circle cx="21" cy="21" r="21" fill="#D85CF7"/>
<path d="M15.5 17.3438C15.5521 17.0885 15.6224 16.8151 15.7109 16.5234C15.8047 16.2266 15.8984 15.9531 15.9922 15.7031C16.0911 15.4479 16.1771 15.25 16.25 15.1094C16.3646 14.9062 16.4948 14.7578 16.6406 14.6641C16.7865 14.5651 16.9766 14.4974 17.2109 14.4609C17.4922 14.4245 17.9766 14.3958 18.6641 14.375C19.3568 14.3542 20.3021 14.3438 21.5 14.3438C22.6927 14.3438 23.6354 14.3542 24.3281 14.375C25.0208 14.3906 25.5078 14.4193 25.7891 14.4609C26.0286 14.4974 26.2188 14.5651 26.3594 14.6641C26.5 14.7578 26.6276 14.9062 26.7422 15.1094C26.8255 15.2448 26.9141 15.4401 27.0078 15.6953C27.1016 15.9453 27.1927 16.2188 27.2812 16.5156C27.3698 16.8125 27.4453 17.0885 27.5078 17.3438C27.5495 17.5104 27.5339 17.6328 27.4609 17.7109C27.3932 17.7891 27.2708 17.8229 27.0938 17.8125C26.6927 17.7917 26.2396 17.7708 25.7344 17.75C25.2344 17.724 24.6406 17.7031 23.9531 17.6875C23.2708 17.6719 22.4531 17.6641 21.5 17.6641C20.5417 17.6641 19.7214 17.6719 19.0391 17.6875C18.3568 17.7031 17.7656 17.724 17.2656 17.75C16.7656 17.7708 16.3125 17.7917 15.9062 17.8125C15.7344 17.8229 15.612 17.7891 15.5391 17.7109C15.4714 17.6328 15.4583 17.5104 15.5 17.3438ZM15.7812 23.3125C15.4062 23.3125 15.0938 23.1875 14.8438 22.9375C14.599 22.6823 14.4766 22.3698 14.4766 22C14.4766 21.6302 14.599 21.3203 14.8438 21.0703C15.0938 20.8203 15.4062 20.6953 15.7812 20.6953C16.1562 20.6953 16.4661 20.8203 16.7109 21.0703C16.9609 21.3203 17.0859 21.6302 17.0859 22C17.0859 22.3698 16.9609 22.6823 16.7109 22.9375C16.4661 23.1875 16.1562 23.3125 15.7812 23.3125ZM19.3906 22.9766C19.1094 22.9766 18.8802 22.8906 18.7031 22.7188C18.5312 22.5417 18.4453 22.3151 18.4453 22.0391C18.4453 21.7578 18.5312 21.5312 18.7031 21.3594C18.8802 21.1823 19.1094 21.0938 19.3906 21.0938H23.6094C23.8854 21.0938 24.1094 21.1823 24.2812 21.3594C24.4583 21.5312 24.5469 21.7578 24.5469 22.0391C24.5469 22.3151 24.4583 22.5417 24.2812 22.7188C24.1094 22.8906 23.8854 22.9766 23.6094 22.9766H19.3906ZM27.2188 23.3125C26.849 23.3125 26.5391 23.1875 26.2891 22.9375C26.0391 22.6823 25.9141 22.3698 25.9141 22C25.9141 21.6302 26.0391 21.3203 26.2891 21.0703C26.5391 20.8203 26.849 20.6953 27.2188 20.6953C27.5885 20.6953 27.8984 20.8203 28.1484 21.0703C28.3984 21.3203 28.5234 21.6302 28.5234 22C28.5234 22.3698 28.3984 22.6823 28.1484 22.9375C27.8984 23.1875 27.5885 23.3125 27.2188 23.3125ZM21.5 25.4844C22.1667 25.4844 22.8672 25.4766 23.6016 25.4609C24.3411 25.4453 25.0625 25.4245 25.7656 25.3984C26.474 25.3672 27.1224 25.3333 27.7109 25.2969C28.2995 25.2604 28.7786 25.2214 29.1484 25.1797C29.7161 25.112 30.1536 24.9219 30.4609 24.6094C30.7682 24.2969 30.9219 23.875 30.9219 23.3438V22.0156C30.9219 21.5573 30.8906 21.1562 30.8281 20.8125C30.7656 20.4688 30.6615 20.1484 30.5156 19.8516C30.375 19.5547 30.1823 19.2474 29.9375 18.9297L29.2422 18.0625C29.1484 17.5938 29.0339 17.1302 28.8984 16.6719C28.7682 16.2135 28.6354 15.8021 28.5 15.4375C28.3698 15.0729 28.2604 14.7943 28.1719 14.6016C27.9531 14.1432 27.638 13.7786 27.2266 13.5078C26.8203 13.2318 26.349 13.0573 25.8125 12.9844C25.625 12.9583 25.3229 12.9375 24.9062 12.9219C24.4948 12.9062 23.9948 12.8932 23.4062 12.8828C22.8229 12.8724 22.1875 12.8672 21.5 12.8672C20.8073 12.8672 20.1693 12.8724 19.5859 12.8828C19.0026 12.8932 18.5026 12.9089 18.0859 12.9297C17.6693 12.9453 17.3698 12.9635 17.1875 12.9844C16.6458 13.0521 16.1719 13.224 15.7656 13.5C15.3594 13.776 15.0495 14.1432 14.8359 14.6016C14.7422 14.7943 14.6302 15.0729 14.5 15.4375C14.3698 15.8021 14.237 16.2135 14.1016 16.6719C13.9661 17.1302 13.849 17.5938 13.75 18.0625L13.0625 18.9297C12.8177 19.2474 12.6224 19.5547 12.4766 19.8516C12.3359 20.1484 12.2344 20.4688 12.1719 20.8125C12.1094 21.1562 12.0781 21.5573 12.0781 22.0156V23.3438C12.0781 23.875 12.2318 24.2969 12.5391 24.6094C12.8516 24.9219 13.2891 25.112 13.8516 25.1797C14.2214 25.2214 14.7005 25.2604 15.2891 25.2969C15.8776 25.3333 16.5234 25.3672 17.2266 25.3984C17.9349 25.4245 18.6562 25.4453 19.3906 25.4609C20.1302 25.4766 20.8333 25.4844 21.5 25.4844ZM13.1406 27.6953H14.0703C14.3672 27.6953 14.6172 27.5938 14.8203 27.3906C15.0286 27.1875 15.1328 26.9375 15.1328 26.6406V24.6562L12.0781 23.1406V26.6406C12.0781 26.9375 12.1797 27.1875 12.3828 27.3906C12.5859 27.5938 12.8385 27.6953 13.1406 27.6953ZM28.9219 27.6953H29.8672C30.1641 27.6953 30.4141 27.5938 30.6172 27.3906C30.8203 27.1875 30.9219 26.9375 30.9219 26.6406V23.1406L27.875 24.6562V26.6406C27.875 26.9375 27.974 27.1875 28.1719 27.3906C28.375 27.5938 28.625 27.6953 28.9219 27.6953Z" fill="#462E4D"/>
</svg>
